<svg width="368" height="245" viewBox="0 0 368 245" fill="none" xmlns="http://www.w3.org/2000/svg">
<g filter="url(#filter0_i_7_211)">
<ellipse cx="82.9566" cy="49.0552" rx="48.0332" ry="49.0552" fill="#FFC3DE"/>
</g>
<g filter="url(#filter1_i_7_211)">
<path d="M204.336 117.921C204.336 169.501 162.523 211.314 110.943 211.314C59.3632 211.314 17.5496 169.501 17.5496 117.921C17.5496 66.3413 59.3632 24.5276 110.943 24.5276C162.523 24.5276 204.336 66.3413 204.336 117.921Z" fill="#F4EBC3"/>
</g>
<g filter="url(#filter2_i_7_211)">
<ellipse cx="25.3659" cy="54.3659" rx="38.3659" ry="38.3659" fill="#B0E1DB"/>
</g>
<path d="M14.3946 52.3993C14.614 53.2179 14.1281 54.0594 13.3094 54.2788C12.4908 54.4982 11.6493 54.0123 11.4299 53.1936C11.2105 52.375 11.6964 51.5335 12.5151 51.3141C13.3337 51.0947 14.1752 51.5806 14.3946 52.3993Z" fill="black"/>
<path d="M47.3768 43.5617C47.5962 44.3804 47.1103 45.2219 46.2916 45.4412C45.473 45.6606 44.6315 45.1748 44.4121 44.3561C44.1927 43.5374 44.6786 42.6959 45.4973 42.4766C46.3159 42.2572 47.1574 42.743 47.3768 43.5617Z" fill="black"/>
<path d="M26.7572 57.0307L32.1736 58.3597L36.3925 54.4489" stroke="black" stroke-width="5" stroke-linecap="round"/>
<g filter="url(#filter3_d_7_211)">
<path d="M253.578 21.3517C311.747 21.3518 358.902 68.5071 358.902 126.676C358.902 184.845 311.747 232 253.578 232C195.409 232 148.254 184.845 148.254 126.676C148.254 68.5071 195.409 21.3517 253.578 21.3517Z" stroke="#B0E1DB" stroke-width="10" shape-rendering="crispEdges"/>
</g>
<defs>
<filter id="filter0_i_7_211" x="34.9233" y="0" width="96.0665" height="102.11" filterUnits="userSpaceOnUse" color-interpolation-filters="sRGB">
<feFlood flood-opacity="0" result="BackgroundImageFix"/>
<feBlend mode="normal" in="SourceGraphic" in2="BackgroundImageFix" result="shape"/>
<feColorMatrix in="SourceAlpha" type="matrix" values="0 0 0 0 0 0 0 0 0 0 0 0 0 0 0 0 0 0 127 0" result="hardAlpha"/>
<feOffset dy="4"/>
<feGaussianBlur stdDeviation="2"/>
<feComposite in2="hardAlpha" operator="arithmetic" k2="-1" k3="1"/>
<feColorMatrix type="matrix" values="0 0 0 0 0 0 0 0 0 0 0 0 0 0 0 0 0 0 0.1 0"/>
<feBlend mode="normal" in2="shape" result="effect1_innerShadow_7_211"/>
</filter>
<filter id="filter1_i_7_211" x="17.5496" y="24.5276" width="186.787" height="190.787" filterUnits="userSpaceOnUse" color-interpolation-filters="sRGB">
<feFlood flood-opacity="0" result="BackgroundImageFix"/>
<feBlend mode="normal" in="SourceGraphic" in2="BackgroundImageFix" result="shape"/>
<feColorMatrix in="SourceAlpha" type="matrix" values="0 0 0 0 0 0 0 0 0 0 0 0 0 0 0 0 0 0 127 0" result="hardAlpha"/>
<feOffset dy="4"/>
<feGaussianBlur stdDeviation="2"/>
<feComposite in2="hardAlpha" operator="arithmetic" k2="-1" k3="1"/>
<feColorMatrix type="matrix" values="0 0 0 0 0 0 0 0 0 0 0 0 0 0 0 0 0 0 0.1 0"/>
<feBlend mode="normal" in2="shape" result="effect1_innerShadow_7_211"/>
</filter>
<filter id="filter2_i_7_211" x="-13" y="16" width="76.7318" height="80.7319" filterUnits="userSpaceOnUse" color-interpolation-filters="sRGB">
<feFlood flood-opacity="0" result="BackgroundImageFix"/>
<feBlend mode="normal" in="SourceGraphic" in2="BackgroundImageFix" result="shape"/>
<feColorMatrix in="SourceAlpha" type="matrix" values="0 0 0 0 0 0 0 0 0 0 0 0 0 0 0 0 0 0 127 0" result="hardAlpha"/>
<feOffset dy="4"/>
<feGaussianBlur stdDeviation="2"/>
<feComposite in2="hardAlpha" operator="arithmetic" k2="-1" k3="1"/>
<feColorMatrix type="matrix" values="0 0 0 0 0 0 0 0 0 0 0 0 0 0 0 0 0 0 0.25 0"/>
<feBlend mode="normal" in2="shape" result="effect1_innerShadow_7_211"/>
</filter>
<filter id="filter3_d_7_211" x="139.254" y="16.3517" width="228.648" height="228.648" filterUnits="userSpaceOnUse" color-interpolation-filters="sRGB">
<feFlood flood-opacity="0" result="BackgroundImageFix"/>
<feColorMatrix in="SourceAlpha" type="matrix" values="0 0 0 0 0 0 0 0 0 0 0 0 0 0 0 0 0 0 127 0" result="hardAlpha"/>
<feOffset dy="4"/>
<feGaussianBlur stdDeviation="2"/>
<feComposite in2="hardAlpha" operator="out"/>
<feColorMatrix type="matrix" values="0 0 0 0 0 0 0 0 0 0 0 0 0 0 0 0 0 0 0.25 0"/>
<feBlend mode="normal" in2="BackgroundImageFix" result="effect1_dropShadow_7_211"/>
<feBlend mode="normal" in="SourceGraphic" in2="effect1_dropShadow_7_211" result="shape"/>
</filter>
</defs>
</svg>
