<svg width="210" height="117" viewBox="0 0 210 117" fill="none" xmlns="http://www.w3.org/2000/svg">
<g filter="url(#filter0_d_6_54)">
<ellipse cx="133" cy="-2.5" rx="103" ry="103.5" fill="#F4EBC3"/>
</g>
<g filter="url(#filter1_d_6_54)">
<path d="M107 -103C162.215 -103 207 -58.0183 207 -2.5C207 53.0183 162.215 98 107 98C51.7852 98 7 53.0183 7 -2.5C7 -58.0183 51.7852 -103 107 -103Z" stroke="#FFC3DE" stroke-width="6" shape-rendering="crispEdges"/>
</g>
<g filter="url(#filter2_i_6_54)">
<ellipse cx="144.065" cy="95.5" rx="18.0645" ry="17.5" fill="#FFC3DE"/>
</g>
<circle cx="136.161" cy="93.8065" r="1.12903" fill="black"/>
<circle cx="136.161" cy="93.8065" r="1.12903" fill="black"/>
<circle cx="153.097" cy="93.8065" r="1.12903" fill="black"/>
<circle cx="153.097" cy="93.8065" r="1.12903" fill="black"/>
<path d="M139.548 99.4516C139.548 99.4516 143.243 104.938 144.629 101.945C146.015 98.9528 148.786 101.945 149.71 99.4516" stroke="black" stroke-linecap="round"/>
<g filter="url(#filter3_i_6_54)">
<circle cx="112" cy="95" r="22" fill="#B0E1DB"/>
</g>
<circle cx="102.1" cy="95" r="1.1" fill="black"/>
<circle cx="102.1" cy="95" r="1.1" fill="black"/>
<circle cx="120.8" cy="95" r="1.1" fill="black"/>
<circle cx="120.8" cy="95" r="1.1" fill="black"/>
<path d="M107.6 98.3H115.3V98.85C115.3 100.976 113.576 102.7 111.45 102.7C109.324 102.7 107.6 100.976 107.6 98.85V98.3Z" fill="black"/>
<defs>
<filter id="filter0_d_6_54" x="26" y="-106" width="214" height="215" filterUnits="userSpaceOnUse" color-interpolation-filters="sRGB">
<feFlood flood-opacity="0" result="BackgroundImageFix"/>
<feColorMatrix in="SourceAlpha" type="matrix" values="0 0 0 0 0 0 0 0 0 0 0 0 0 0 0 0 0 0 127 0" result="hardAlpha"/>
<feOffset dy="4"/>
<feGaussianBlur stdDeviation="2"/>
<feComposite in2="hardAlpha" operator="out"/>
<feColorMatrix type="matrix" values="0 0 0 0 0 0 0 0 0 0 0 0 0 0 0 0 0 0 0.25 0"/>
<feBlend mode="normal" in2="BackgroundImageFix" result="effect1_dropShadow_6_54"/>
<feBlend mode="normal" in="SourceGraphic" in2="effect1_dropShadow_6_54" result="shape"/>
</filter>
<filter id="filter1_d_6_54" x="0" y="-106" width="214" height="215" filterUnits="userSpaceOnUse" color-interpolation-filters="sRGB">
<feFlood flood-opacity="0" result="BackgroundImageFix"/>
<feColorMatrix in="SourceAlpha" type="matrix" values="0 0 0 0 0 0 0 0 0 0 0 0 0 0 0 0 0 0 127 0" result="hardAlpha"/>
<feOffset dy="4"/>
<feGaussianBlur stdDeviation="2"/>
<feComposite in2="hardAlpha" operator="out"/>
<feColorMatrix type="matrix" values="0 0 0 0 0 0 0 0 0 0 0 0 0 0 0 0 0 0 0.25 0"/>
<feBlend mode="normal" in2="BackgroundImageFix" result="effect1_dropShadow_6_54"/>
<feBlend mode="normal" in="SourceGraphic" in2="effect1_dropShadow_6_54" result="shape"/>
</filter>
<filter id="filter2_i_6_54" x="126" y="78" width="36.129" height="39" filterUnits="userSpaceOnUse" color-interpolation-filters="sRGB">
<feFlood flood-opacity="0" result="BackgroundImageFix"/>
<feBlend mode="normal" in="SourceGraphic" in2="BackgroundImageFix" result="shape"/>
<feColorMatrix in="SourceAlpha" type="matrix" values="0 0 0 0 0 0 0 0 0 0 0 0 0 0 0 0 0 0 127 0" result="hardAlpha"/>
<feOffset dy="4"/>
<feGaussianBlur stdDeviation="2"/>
<feComposite in2="hardAlpha" operator="arithmetic" k2="-1" k3="1"/>
<feColorMatrix type="matrix" values="0 0 0 0 0 0 0 0 0 0 0 0 0 0 0 0 0 0 0.17 0"/>
<feBlend mode="normal" in2="shape" result="effect1_innerShadow_6_54"/>
</filter>
<filter id="filter3_i_6_54" x="90" y="73" width="44" height="48" filterUnits="userSpaceOnUse" color-interpolation-filters="sRGB">
<feFlood flood-opacity="0" result="BackgroundImageFix"/>
<feBlend mode="normal" in="SourceGraphic" in2="BackgroundImageFix" result="shape"/>
<feColorMatrix in="SourceAlpha" type="matrix" values="0 0 0 0 0 0 0 0 0 0 0 0 0 0 0 0 0 0 127 0" result="hardAlpha"/>
<feOffset dy="4"/>
<feGaussianBlur stdDeviation="2"/>
<feComposite in2="hardAlpha" operator="arithmetic" k2="-1" k3="1"/>
<feColorMatrix type="matrix" values="0 0 0 0 0 0 0 0 0 0 0 0 0 0 0 0 0 0 0.25 0"/>
<feBlend mode="normal" in2="shape" result="effect1_innerShadow_6_54"/>
</filter>
</defs>
</svg>
